<?xml version="1.0" encoding="iso-8859-1"?>
<!-- Uploaded to: SVG Repo, www.svgrepo.com, Generator: SVG Repo Mixer Tools -->
<svg fill="#000000" height="800px" width="800px" version="1.1" id="Layer_1" xmlns="http://www.w3.org/2000/svg" xmlns:xlink="http://www.w3.org/1999/xlink" 
	 viewBox="0 0 502 502" xml:space="preserve">
<g>
	<g>
		<g>
			<path d="M307.551,5.727H194.449C87.229,5.727,0,92.956,0,200.175v286.098c0,5.523,4.477,10,10,10h482c5.523,0,10-4.477,10-10
				V200.175C502,92.956,414.771,5.727,307.551,5.727z M111.684,476.138l13.475-13.475h251.683l13.474,13.475H111.684z
				 M93.696,416.786V124.432c0-12.85,10.454-23.303,23.304-23.303h268c12.85,0,23.304,10.454,23.304,23.303v292.354H93.696z
				 M356.933,442.663H145.066l5.877-5.877h200.113L356.933,442.663z M482,476.273h-63.171l-39.488-39.488h38.963
				c5.523,0,10-4.477,10-10V124.432c0-23.877-19.426-43.303-43.304-43.303H117c-23.878,0-43.304,19.426-43.304,43.303v302.354
				c0,5.523,4.477,10,10,10h38.963l-39.395,39.487H20V200.175c0-96.191,78.257-174.449,174.449-174.449h113.103
				C403.743,25.727,482,103.984,482,200.175V476.273z"/>
			<path d="M119.884,271.055h112.235c5.523,0,10-4.477,10-10V127.841c0-5.523-4.477-10-10-10H119.884c-5.523,0-10,4.477-10,10
				v133.214C109.884,266.578,114.361,271.055,119.884,271.055z M129.884,137.841h92.235v113.214h-92.235V137.841z"/>
			<path d="M382.116,117.841H269.881c-5.523,0-10,4.477-10,10v133.214c0,5.523,4.477,10,10,10h112.235c5.523,0,10-4.477,10-10
				V127.841C392.116,122.318,387.639,117.841,382.116,117.841z M279.881,251.055V137.841h92.235v113.214H279.881z"/>
			<path d="M141.387,331.673c-17.371,0-31.503,14.132-31.503,31.503c0,17.371,14.132,31.503,31.503,31.503
				c17.371,0,31.503-14.132,31.503-31.503C172.89,345.805,158.758,331.673,141.387,331.673z M141.387,374.679
				c-6.343,0-11.503-5.16-11.503-11.503c0-6.343,5.16-11.503,11.503-11.503c6.343,0,11.503,5.16,11.503,11.503
				C152.89,369.519,147.729,374.679,141.387,374.679z"/>
			<path d="M360.613,331.673c-17.371,0-31.503,14.132-31.503,31.503c0,17.371,14.132,31.503,31.503,31.503
				c17.371,0,31.503-14.132,31.503-31.503C392.116,345.805,377.984,331.673,360.613,331.673z M360.613,374.679
				c-6.343,0-11.503-5.16-11.503-11.503c0-6.343,5.16-11.503,11.503-11.503c6.343,0,11.503,5.16,11.503,11.503
				C372.116,369.519,366.956,374.679,360.613,374.679z"/>
			<path d="M336.402,296.814c0-5.523-4.477-10-10-10H121.194c-5.523,0-10,4.477-10,10s4.477,10,10,10h205.208
				C331.925,306.814,336.402,302.337,336.402,296.814z"/>
			<path d="M379.852,306.814c5.523,0,10-4.477,10-10s-4.477-10-10-10h-20.998c-5.523,0-10,4.477-10,10s4.477,10,10,10H379.852z"/>
			<path d="M203.277,145.555h-54.404c-5.523,0-10,4.477-10,10s4.477,10,10,10h54.404c5.523,0,10-4.477,10-10
				S208.8,145.555,203.277,145.555z"/>
			<path d="M353.127,145.555h-54.404c-5.523,0-10,4.477-10,10s4.477,10,10,10h54.404c5.523,0,10-4.477,10-10
				S358.65,145.555,353.127,145.555z"/>
		</g>
	</g>
</g>
</svg>